<?xml version="1.0" encoding="utf-8"?>
<!-- Generator: Adobe Illustrator 16.0.3, SVG Export Plug-In . SVG Version: 6.00 Build 0)  -->
<!DOCTYPE svg PUBLIC "-//W3C//DTD SVG 1.1//EN" "http://www.w3.org/Graphics/SVG/1.1/DTD/svg11.dtd">
<svg version="1.1" id="Layer_1" xmlns="http://www.w3.org/2000/svg" xmlns:xlink="http://www.w3.org/1999/xlink" x="0px" y="0px"
	 width="150px" height="48px" viewBox="0 0 150 48" enable-background="new 0 0 150 48" xml:space="preserve">
<symbol  id="flash4.ai_x2F_Isolation_Mode_x2F_PLAY">
</symbol>
<g>
	
		<use xlink:href="#flash4.ai_x2F_Isolation_Mode_x2F_PLAY"  width="-32766" height="-32766" x="16383" y="16383" transform="matrix(0.2933 0 0 -0.2932 8.7002 7.5889)" overflow="visible"/>
	<g>
		<path fill-rule="evenodd" clip-rule="evenodd" fill="#F7F8F9" d="M112.466,23.128c0.498-0.235,1.07-0.352,1.715-0.352
			c1.291,0,2.279,0.439,2.963,1.319c0.693,0.85,1.041,2.076,1.041,3.679c0,1.583-0.352,2.814-1.057,3.694
			c-0.703,0.88-1.686,1.319-2.947,1.319c-0.625,0-1.201-0.117-1.73-0.352c-0.508-0.216-0.943-0.572-1.305-1.07h-0.104
			c0.07,0.537,0.104,1.075,0.104,1.612v3.973h-1.467V22.952h1.188l0.207,1.319h0.072C111.527,23.743,111.968,23.362,112.466,23.128z
			 M115.97,24.989c-0.479-0.645-1.148-0.967-2.008-0.967c-0.988,0-1.701,0.272-2.143,0.82c-0.43,0.537-0.654,1.407-0.674,2.609
			v0.322c0,1.368,0.225,2.341,0.674,2.917c0.461,0.587,1.189,0.88,2.186,0.88c0.832,0,1.486-0.337,1.965-1.012
			c0.471-0.684,0.705-1.617,0.705-2.8C116.675,26.558,116.441,25.635,115.97,24.989z"/>
		<rect x="120.121" y="18.906" fill-rule="evenodd" clip-rule="evenodd" fill="#F7F8F9" width="1.467" height="13.706"/>
		<path fill-rule="evenodd" clip-rule="evenodd" fill="#F7F8F9" d="M130.253,23.567c0.549,0.518,0.822,1.334,0.822,2.448v6.597
			h-1.086l-0.279-1.378h-0.072c-0.479,0.615-0.963,1.026-1.451,1.231c-0.461,0.215-1.057,0.322-1.789,0.322
			c-0.939,0-1.691-0.244-2.26-0.733c-0.537-0.498-0.807-1.201-0.807-2.11c0-1.955,1.561-2.976,4.68-3.063l1.641-0.059v-0.602
			c0-0.763-0.16-1.319-0.482-1.671c-0.334-0.361-0.855-0.543-1.57-0.543c-0.791,0-1.705,0.245-2.742,0.733l-0.439-1.114
			c0.469-0.264,0.992-0.469,1.568-0.615c0.559-0.146,1.125-0.22,1.701-0.22C128.832,22.791,129.687,23.05,130.253,23.567z
			 M126.691,31.586c0.918,0,1.633-0.249,2.141-0.747c0.527-0.499,0.791-1.198,0.791-2.097v-0.88l-1.465,0.059
			c-1.174,0.049-2.016,0.229-2.523,0.543c-0.518,0.322-0.777,0.82-0.777,1.495c0,0.537,0.162,0.942,0.484,1.217
			C125.673,31.449,126.123,31.586,126.691,31.586z"/>
		<path fill-rule="evenodd" clip-rule="evenodd" fill="#F7F8F9" d="M133.496,22.952l2.125,5.512c0.471,1.29,0.758,2.198,0.865,2.727
			h0.059l0.484-1.54c0.303-0.879,1.1-3.112,2.391-6.698h1.568l-4.15,11.009c-0.4,1.075-0.879,1.842-1.436,2.302
			c-0.549,0.459-1.223,0.688-2.023,0.688c-0.48,0-0.92-0.049-1.32-0.146v-1.173c0.303,0.068,0.664,0.103,1.084,0.103
			c1.008,0,1.721-0.562,2.143-1.686l0.541-1.378l-3.9-9.719H133.496z"/>
	</g>
	<g>
		<path fill-rule="evenodd" clip-rule="evenodd" fill="#F7F8F9" d="M87.068,23.846c0.4,0.333,0.699,0.646,0.895,0.938
			c0.361,0.537,0.541,1.139,0.541,1.803c0,0.665-0.176,1.246-0.527,1.744c-0.234,0.313-0.625,0.685-1.172,1.115
			c-0.197,0.194-0.324,0.337-0.383,0.425c-0.127,0.186-0.189,0.376-0.189,0.571c0,0.293,0.176,0.582,0.527,0.865l0.732,0.571
			c0.588,0.499,0.982,0.89,1.188,1.173c0.344,0.479,0.514,1.031,0.514,1.656c0,1.017-0.453,1.887-1.363,2.609
			c-0.998,0.802-2.316,1.202-3.959,1.202c-1.389,0-2.479-0.293-3.271-0.88c-0.713-0.537-1.07-1.206-1.07-2.008
			c0-0.43,0.107-0.846,0.324-1.246c0.273-0.488,0.684-0.895,1.23-1.217c0.539-0.332,1.223-0.576,2.053-0.732
			c0.383-0.069,0.982-0.137,1.805-0.205c-0.195-0.245-0.332-0.44-0.41-0.587c-0.127-0.244-0.191-0.503-0.191-0.777
			c0-0.195,0.068-0.459,0.205-0.791l-0.66,0.044c-1.016,0-1.842-0.332-2.479-0.997c-0.576-0.605-0.865-1.334-0.865-2.185
			c0-0.479,0.109-0.947,0.324-1.407c0.225-0.498,0.547-0.928,0.967-1.289c0.891-0.743,2.098-1.114,3.623-1.114h4.164l-1.305,0.718
			H87.068z M82.755,24.462c-0.293,0.371-0.439,0.869-0.439,1.495c0,0.82,0.205,1.588,0.615,2.301c0.49,0.86,1.125,1.29,1.906,1.29
			c0.549,0,1.008-0.186,1.379-0.557c0.332-0.332,0.498-0.826,0.498-1.48c0-0.851-0.215-1.651-0.645-2.404
			c-0.498-0.88-1.129-1.319-1.891-1.319c-0.266,0-0.529,0.063-0.793,0.19C83.123,24.096,82.912,24.257,82.755,24.462z
			 M81.304,35.207c0,0.723,0.322,1.314,0.967,1.773c0.656,0.459,1.521,0.689,2.596,0.689c0.939,0,1.678-0.206,2.215-0.616
			c0.498-0.391,0.748-0.914,0.748-1.568c0-0.479-0.176-0.914-0.527-1.305c-0.264-0.303-0.822-0.758-1.672-1.363l-0.471-0.015
			c-0.762,0-1.465,0.107-2.111,0.322C81.886,33.535,81.304,34.229,81.304,35.207z"/>
		<path fill-rule="evenodd" clip-rule="evenodd" fill="#F7F8F9" d="M74.646,22.834c1.427,0,2.601,0.489,3.519,1.466
			c0.871,0.919,1.305,2.019,1.305,3.299s-0.443,2.395-1.334,3.343c-0.977,1.035-2.244,1.554-3.797,1.554
			c-1.506,0-2.728-0.509-3.667-1.525c-0.841-0.918-1.261-1.993-1.261-3.225c0-1.349,0.488-2.497,1.467-3.445
			C71.885,23.323,73.141,22.834,74.646,22.834z M72.3,24.153c-0.361,0.323-0.615,0.714-0.763,1.173
			c-0.107,0.343-0.161,0.772-0.161,1.29c0,1.231,0.265,2.36,0.792,3.387c0.655,1.261,1.535,1.891,2.64,1.891
			c0.401,0,0.782-0.088,1.143-0.264c0.383-0.195,0.686-0.449,0.91-0.763c0.4-0.537,0.602-1.285,0.602-2.242
			c0-1.163-0.244-2.243-0.734-3.24c-0.625-1.279-1.494-1.92-2.61-1.92C73.434,23.465,72.828,23.694,72.3,24.153z"/>
		<path fill-rule="evenodd" clip-rule="evenodd" fill="#F7F8F9" d="M63.707,22.834c1.427,0,2.6,0.489,3.52,1.466
			c0.87,0.919,1.305,2.019,1.305,3.299s-0.444,2.395-1.335,3.343c-0.968,1.035-2.233,1.554-3.798,1.554
			c-1.505,0-2.728-0.509-3.666-1.525c-0.841-0.918-1.261-1.993-1.261-3.225c0-1.349,0.488-2.497,1.466-3.445
			C60.945,23.323,62.201,22.834,63.707,22.834z M61.36,24.153c-0.616,0.558-0.924,1.378-0.924,2.463c0,1.231,0.264,2.36,0.792,3.387
			c0.655,1.261,1.535,1.891,2.64,1.891c0.4,0,0.787-0.088,1.158-0.264c0.372-0.186,0.67-0.439,0.895-0.763
			c0.411-0.547,0.616-1.295,0.616-2.242c0-1.163-0.244-2.243-0.733-3.24c-0.636-1.279-1.511-1.92-2.625-1.92
			C62.494,23.465,61.889,23.694,61.36,24.153z"/>
		<path fill-rule="evenodd" clip-rule="evenodd" fill="#F7F8F9" d="M55.055,20.899c-0.567-0.547-1.076-0.948-1.525-1.202
			c-0.84-0.469-1.779-0.703-2.815-0.703c-1.623,0-2.962,0.557-4.018,1.671c-1.075,1.124-1.613,2.565-1.613,4.324
			c0,1.994,0.645,3.704,1.936,5.131c1.369,1.515,3.119,2.272,5.25,2.272c0.577,0,1.095-0.054,1.554-0.161
			c0.274-0.068,0.616-0.187,1.026-0.353V28.61l-3.065,0.161l1.613-0.865h4.312l-0.528,0.499c-0.098,0.088-0.167,0.195-0.206,0.322
			l-0.044,3.459l-2.903,0.66c-1.447,0.234-2.562,0.352-3.344,0.352c-2.562,0-4.551-0.82-5.968-2.463
			c-1.173-1.367-1.76-2.995-1.76-4.881c0-2.072,0.718-3.826,2.156-5.263c1.544-1.544,3.559-2.316,6.042-2.316
			c1.046,0,2.083,0.142,3.109,0.425c0.655,0.187,1.232,0.411,1.73,0.675c0.264,0.137,0.577,0.332,0.938,0.586l-1.687,1.599
			l-0.704,0.161L55.055,20.899z"/>
		<path fill-rule="evenodd" clip-rule="evenodd" fill="#F7F8F9" d="M90.689,17.821h2.904c-0.352,0.205-0.572,0.361-0.66,0.469
			c-0.127,0.156-0.211,0.4-0.25,0.733l-0.014,0.117v11.492c0,0.392,0.053,0.646,0.16,0.763c0.088,0.107,0.303,0.176,0.646,0.205
			l1.041,0.103l-0.748,0.439h-3.594c0.254-0.332,0.406-0.532,0.455-0.601c0.059-0.117,0.088-0.273,0.088-0.469v-12.52h-1.555
			L90.689,17.821z"/>
		<path fill-rule="evenodd" clip-rule="evenodd" fill="#F7F8F9" d="M101.072,23.406c0.439,0.283,0.781,0.64,1.025,1.07
			c0.129,0.225,0.256,0.532,0.383,0.923l-4.736,1.921l-1.555,0.117c0.254,1.251,0.771,2.243,1.555,2.976
			c0.752,0.714,1.617,1.07,2.594,1.07c0.461,0,0.916-0.073,1.365-0.22c0.264-0.088,0.631-0.249,1.1-0.484l-1.07,1.012l-0.66,0.352
			c-0.566,0.265-1.217,0.396-1.951,0.396c-1.064,0-1.959-0.265-2.684-0.792c-0.684-0.479-1.207-1.124-1.568-1.935
			c-0.322-0.733-0.484-1.505-0.484-2.316c0-1.446,0.508-2.609,1.525-3.489c0.891-0.771,1.916-1.157,3.08-1.157
			C99.791,22.85,100.486,23.035,101.072,23.406z M96.966,24.096c-0.568,0.508-0.852,1.245-0.852,2.213
			c0,0.225,0.02,0.582,0.059,1.07l3.666-1.598c0.205-0.068,0.352-0.142,0.441-0.22c0.098-0.078,0.146-0.187,0.146-0.323
			c0-0.42-0.197-0.811-0.588-1.173c-0.41-0.371-0.879-0.557-1.408-0.557C97.894,23.509,97.406,23.704,96.966,24.096z"/>
		<g>
			<polygon fill-rule="evenodd" clip-rule="evenodd" fill="#F7F8F9" points="103.681,22.98 103.681,24.315 103.521,24.315 
				103.521,22.98 103.082,22.98 103.082,22.85 104.123,22.85 104.123,22.98 			"/>
			<polygon fill-rule="evenodd" clip-rule="evenodd" fill="#F7F8F9" points="104.386,22.85 104.634,22.85 105.001,24.036 
				105.017,24.036 105.382,22.85 105.632,22.85 105.632,24.315 105.486,24.315 105.486,22.967 105.076,24.315 104.943,24.315 
				104.533,22.967 104.533,24.315 104.386,24.315 			"/>
		</g>
	</g>
	<g>
		<path fill-rule="evenodd" clip-rule="evenodd" fill="#F8FAFB" d="M46.314,12.28c0.45,1.231,0.675,1.911,0.675,2.038h-1.012
			c0-0.166-0.098-0.557-0.293-1.173h-1.452c-0.196,0.646-0.293,1.036-0.293,1.173h-0.953c0-0.078,0.249-0.748,0.748-2.008
			c0.489-1.271,0.733-1.964,0.733-2.082h1.188C45.655,10.335,45.875,11.019,46.314,12.28z M44.379,12.544h1.159
			c-0.362-1.065-0.543-1.652-0.543-1.759h-0.059C44.936,10.902,44.75,11.488,44.379,12.544z"/>
		<path fill-rule="evenodd" clip-rule="evenodd" fill="#F8FAFB" d="M51.007,12.177c0,0.801,0.015,1.515,0.044,2.14h-0.777
			c0-0.078-0.289-0.532-0.865-1.363c-0.606-0.85-0.953-1.441-1.041-1.774h-0.044c0.049,0.508,0.073,0.924,0.073,1.246l0.044,1.891
			h-0.777c0.039-0.86,0.059-1.573,0.059-2.14c0-0.596-0.02-1.246-0.059-1.95h0.939c0,0.098,0.259,0.538,0.777,1.319
			c0.538,0.811,0.855,1.373,0.953,1.686h0.044c-0.049-0.518-0.073-0.938-0.073-1.26c0-0.577-0.015-1.158-0.044-1.745h0.792
			C51.022,10.746,51.007,11.396,51.007,12.177z"/>
		<path fill-rule="evenodd" clip-rule="evenodd" fill="#F8FAFB" d="M55.612,12.133c0,0.596-0.19,1.114-0.572,1.554
			c-0.381,0.449-0.914,0.674-1.599,0.674l-1.291-0.044c0.029-0.625,0.044-1.339,0.044-2.14c0-0.772-0.015-1.422-0.044-1.95
			l1.305-0.029c0.763,0,1.31,0.191,1.643,0.572C55.441,11.142,55.612,11.596,55.612,12.133z M54.761,12.265
			c0-0.4-0.117-0.743-0.352-1.026c-0.254-0.274-0.616-0.411-1.085-0.411l-0.367,0.029l0.059,2.814
			c0.137,0.029,0.274,0.044,0.411,0.044c0.459,0,0.792-0.142,0.997-0.425C54.649,13.008,54.761,12.666,54.761,12.265z"/>
		<path fill-rule="evenodd" clip-rule="evenodd" fill="#F8FAFB" d="M57.313,10.843c0.02,0.215,0.029,0.64,0.029,1.275h0.293
			c0.675,0,1.012-0.229,1.012-0.689c0-0.42-0.269-0.63-0.807-0.63C57.636,10.799,57.459,10.814,57.313,10.843z M57.709,12.69h-0.352
			c0,0.723,0.01,1.266,0.029,1.627h-0.88c0.029-0.625,0.044-1.339,0.044-2.14c0-0.772-0.015-1.422-0.044-1.95l1.496-0.029
			c0.968,0,1.452,0.333,1.452,0.997c0,0.518-0.278,0.879-0.836,1.084v0.044c0.215,0.068,0.4,0.235,0.558,0.499
			c0.176,0.303,0.391,0.801,0.645,1.495h-0.924c-0.254-0.733-0.439-1.192-0.557-1.378C58.213,12.773,58.002,12.69,57.709,12.69z"/>
		<path fill-rule="evenodd" clip-rule="evenodd" fill="#F8FAFB" d="M64.337,12.192c0,0.655-0.195,1.192-0.586,1.612
			c-0.392,0.42-0.88,0.63-1.467,0.63c-0.548,0-1.012-0.195-1.394-0.586c-0.371-0.381-0.557-0.875-0.557-1.48
			c0-0.655,0.195-1.188,0.587-1.598c0.4-0.43,0.89-0.645,1.466-0.645c0.567,0,1.031,0.195,1.394,0.586
			C64.151,11.083,64.337,11.576,64.337,12.192z M63.473,12.28c0-0.43-0.113-0.782-0.338-1.055c-0.215-0.274-0.494-0.411-0.836-0.411
			c-0.303,0-0.563,0.137-0.777,0.411c-0.215,0.273-0.322,0.62-0.322,1.041c0,0.43,0.112,0.787,0.337,1.07
			c0.244,0.274,0.523,0.41,0.836,0.41c0.293,0,0.553-0.142,0.777-0.425C63.364,13.066,63.473,12.72,63.473,12.28z"/>
		<path fill-rule="evenodd" clip-rule="evenodd" fill="#F8FAFB" d="M65.231,10.228h0.895c-0.029,0.528-0.044,1.178-0.044,1.95
			c0,0.801,0.015,1.515,0.044,2.14h-0.895c0.029-0.645,0.044-1.358,0.044-2.14C65.275,11.405,65.261,10.755,65.231,10.228z"/>
		<path fill-rule="evenodd" clip-rule="evenodd" fill="#F8FAFB" d="M70.687,12.133c0,0.596-0.19,1.114-0.571,1.554
			c-0.382,0.449-0.914,0.674-1.599,0.674l-1.29-0.044c0.029-0.625,0.043-1.339,0.043-2.14c0-0.772-0.014-1.422-0.043-1.95
			l1.305-0.029c0.763,0,1.31,0.191,1.643,0.572C70.516,11.142,70.687,11.596,70.687,12.133z M69.836,12.265
			c0-0.41-0.122-0.752-0.366-1.026c-0.244-0.274-0.602-0.411-1.07-0.411l-0.366,0.029l0.059,2.814
			c0.137,0.029,0.273,0.044,0.41,0.044c0.439,0,0.772-0.142,0.997-0.425C69.724,13.008,69.836,12.666,69.836,12.265z"/>
		<path fill-rule="evenodd" clip-rule="evenodd" fill="#F8FAFB" d="M76.083,12.28c0.439,1.251,0.66,1.93,0.66,2.038h-0.998
			c0-0.117-0.098-0.508-0.293-1.173h-1.452c-0.195,0.596-0.293,0.987-0.293,1.173h-0.953c0-0.068,0.244-0.738,0.733-2.008
			c0.488-1.271,0.732-1.964,0.732-2.082h1.189C75.41,10.306,75.634,10.99,76.083,12.28z M74.147,12.544h1.145
			c-0.363-1.114-0.543-1.701-0.543-1.759h-0.044C74.705,10.863,74.52,11.449,74.147,12.544z"/>
		<path fill-rule="evenodd" clip-rule="evenodd" fill="#F8FAFB" d="M77.433,10.228l1.568-0.029c0.4,0,0.738,0.093,1.012,0.279
			c0.273,0.176,0.41,0.449,0.41,0.821c0,0.489-0.186,0.86-0.557,1.114c-0.381,0.235-0.84,0.352-1.379,0.352h-0.205l0.029,1.554
			h-0.879c0.029-0.596,0.043-1.31,0.043-2.14C77.476,11.425,77.462,10.775,77.433,10.228z M78.24,10.843
			c0.029,0.401,0.043,0.85,0.043,1.349h0.176c0.764,0,1.145-0.239,1.145-0.718c0-0.45-0.299-0.674-0.895-0.674L78.24,10.843z"/>
		<path fill-rule="evenodd" clip-rule="evenodd" fill="#F8FAFB" d="M84.207,11.298c0,0.499-0.189,0.87-0.57,1.114
			c-0.361,0.235-0.816,0.352-1.365,0.352h-0.219l0.043,1.554h-0.895c0.029-0.596,0.045-1.31,0.045-2.14
			c0-0.752-0.016-1.402-0.045-1.95l1.57-0.029c0.42,0,0.758,0.093,1.012,0.279C84.066,10.653,84.207,10.926,84.207,11.298z
			 M82.492,10.799l-0.469,0.044c0.02,0.264,0.029,0.713,0.029,1.349h0.189c0.764,0,1.145-0.239,1.145-0.718
			C83.386,11.024,83.087,10.799,82.492,10.799z"/>
		<path fill-rule="evenodd" clip-rule="evenodd" fill="#F8FAFB" d="M88.431,10.125c0.557,0,1.021,0.195,1.393,0.586
			c0.371,0.391,0.559,0.884,0.559,1.48c0,0.645-0.201,1.183-0.602,1.612c-0.383,0.42-0.865,0.63-1.453,0.63
			c-0.566,0-1.031-0.195-1.393-0.586c-0.381-0.381-0.572-0.875-0.572-1.48c0-0.645,0.201-1.178,0.602-1.598
			C87.365,10.34,87.855,10.125,88.431,10.125z M89.517,12.28c0-0.43-0.113-0.782-0.338-1.055c-0.234-0.274-0.514-0.411-0.836-0.411
			c-0.313,0-0.572,0.137-0.777,0.411c-0.215,0.273-0.322,0.62-0.322,1.041c0,0.45,0.111,0.806,0.336,1.07
			c0.225,0.274,0.5,0.41,0.822,0.41c0.303,0,0.566-0.142,0.791-0.425C89.408,13.047,89.517,12.7,89.517,12.28z"/>
		<path fill-rule="evenodd" clip-rule="evenodd" fill="#F8FAFB" d="M94.605,12.177c0,0.801,0.014,1.515,0.043,2.14h-0.777
			c0-0.078-0.287-0.532-0.865-1.363c-0.615-0.879-0.963-1.471-1.041-1.774h-0.043c0.049,0.381,0.072,0.797,0.072,1.246l0.045,1.891
			h-0.762c0.027-0.645,0.043-1.358,0.043-2.14c0-0.772-0.016-1.422-0.043-1.95h0.922c0,0.098,0.26,0.538,0.777,1.319
			c0.568,0.85,0.885,1.412,0.953,1.686h0.061c-0.061-0.469-0.088-0.889-0.088-1.26c0-0.577-0.016-1.158-0.045-1.745h0.791
			C94.619,10.746,94.605,11.396,94.605,12.177z"/>
	</g>
</g>
<g id="PLAY_1_">
	<defs>
		<path id="SVGID_1_" d="M28,19.232l-6.757-3.9c0,0-12.311-7.108-13.034-7.527C7.484,7.388,6.764,7.641,6.764,8.515
			c0,1.455,0,15.177,0,15.177s0,14.83,0,15.483c0,0.655,0.515,0.938,1.144,0.575c0.628-0.364,13.334-7.699,13.334-7.699l6.757-3.901
			c0,0,5.733-3.31,6.495-3.749c0.762-0.441,0.689-1.045,0.045-1.391C33.897,22.662,28,19.232,28,19.232z"/>
	</defs>
	<clipPath id="SVGID_2_">
		<use xlink:href="#SVGID_1_"  overflow="visible"/>
	</clipPath>
	<linearGradient id="SVGID_3_" gradientUnits="userSpaceOnUse" x1="15.1333" y1="7.0938" x2="15.1333" y2="40.2905">
		<stop  offset="0" style="stop-color:#287DB0"/>
		<stop  offset="0.2693" style="stop-color:#4A93B5"/>
		<stop  offset="0.7615" style="stop-color:#78BBBA"/>
		<stop  offset="1" style="stop-color:#8ACEBC"/>
	</linearGradient>
	<polygon clip-path="url(#SVGID_2_)" fill="url(#SVGID_3_)" points="6.764,7.094 6.764,23.691 6.764,40.29 23.503,23.691 	"/>
	<linearGradient id="SVGID_4_" gradientUnits="userSpaceOnUse" x1="6.7637" y1="15.3315" x2="27.9995" y2="15.3315">
		<stop  offset="0" style="stop-color:#53C0AC"/>
		<stop  offset="1" style="stop-color:#DEE89A"/>
	</linearGradient>
	<polygon clip-path="url(#SVGID_2_)" fill="url(#SVGID_4_)" points="28,19.232 21.242,15.332 6.764,6.972 6.764,7.094 
		23.503,23.691 	"/>
	<linearGradient id="SVGID_5_" gradientUnits="userSpaceOnUse" x1="17.3813" y1="23.6914" x2="17.3813" y2="40.4106">
		<stop  offset="0" style="stop-color:#EB413D"/>
		<stop  offset="0.1703" style="stop-color:#D84453"/>
		<stop  offset="0.5766" style="stop-color:#B0497A"/>
		<stop  offset="0.8624" style="stop-color:#944A92"/>
		<stop  offset="1" style="stop-color:#894B9D"/>
	</linearGradient>
	<polygon clip-path="url(#SVGID_2_)" fill="url(#SVGID_5_)" points="6.764,40.29 6.764,40.41 21.242,32.051 27.999,28.149 
		23.503,23.691 	"/>
	<linearGradient id="SVGID_6_" gradientUnits="userSpaceOnUse" x1="29.6123" y1="19.2324" x2="29.6123" y2="28.1499">
		<stop  offset="0" style="stop-color:#F58879"/>
		<stop  offset="0.1104" style="stop-color:#F68F79"/>
		<stop  offset="0.7098" style="stop-color:#FBB777"/>
		<stop  offset="1" style="stop-color:#FEC774"/>
	</linearGradient>
	<polygon clip-path="url(#SVGID_2_)" fill="url(#SVGID_6_)" points="28,19.232 23.503,23.691 27.999,28.149 35.721,23.691 	"/>
</g>
</svg>
