<?xml version="1.0" encoding="utf-8"?>
<!-- Generator: Adobe Illustrator 16.0.3, SVG Export Plug-In . SVG Version: 6.00 Build 0)  -->
<!DOCTYPE svg PUBLIC "-//W3C//DTD SVG 1.1//EN" "http://www.w3.org/Graphics/SVG/1.1/DTD/svg11.dtd">
<svg version="1.1" id="Layer_1" xmlns="http://www.w3.org/2000/svg" xmlns:xlink="http://www.w3.org/1999/xlink" x="0px" y="0px"
	 width="150px" height="48px" viewBox="0 0 150 48" enable-background="new 0 0 150 48" xml:space="preserve">
<g>
	<g>
		<path fill-rule="evenodd" clip-rule="evenodd" fill="#FFFFFF" d="M63.349,8.9c-0.199,0.2-0.433,0.3-0.7,0.3
			c-0.6,0-0.899-0.3-0.899-0.9c0-0.233,0.066-0.433,0.199-0.6c0.2-0.2,0.434-0.3,0.7-0.3c0.567,0,0.883,0.3,0.95,0.9
			C63.599,8.566,63.517,8.767,63.349,8.9z M67.65,7.15v9.45h-1.6V7.15H67.65z M57.699,12.25c0-0.733-0.449-1.1-1.35-1.1
			c-0.667,0-1.25,0.15-1.75,0.45l-0.3-1.05c0.6-0.4,1.383-0.6,2.35-0.6c1.767,0,2.65,0.917,2.65,2.75l0.1,3.9h-1.5l-0.05-0.75H57.8
			c-0.467,0.601-1.117,0.9-1.95,0.9c-0.6,0-1.1-0.217-1.5-0.65c-0.366-0.333-0.55-0.767-0.55-1.3c0-1.633,1.3-2.45,3.899-2.45V12.25
			z M57.699,13.45c-1.5-0.066-2.25,0.317-2.25,1.15c0,0.634,0.301,0.95,0.9,0.95c0.634,0,1.083-0.3,1.35-0.9V13.45z M61.85,10.15
			h1.599v6.45H61.85V10.15z M69.75,14.8c0-1.633,1.283-2.45,3.85-2.45v-0.1c0-0.733-0.434-1.1-1.299-1.1
			c-0.701,0-1.283,0.15-1.75,0.45l-0.352-1.05c0.602-0.4,1.4-0.6,2.4-0.6c1.734,0,2.6,0.917,2.6,2.75v2.35
			c0,0.634,0.051,1.15,0.15,1.55h-1.5l-0.1-0.75h-0.051c-0.432,0.601-1.066,0.9-1.898,0.9c-0.602,0-1.117-0.217-1.551-0.65
			C69.916,15.767,69.75,15.333,69.75,14.8z M86.849,7.15v9.45h-1.65V7.15H86.849z M78.55,7.15V11h0.049
			c0.434-0.7,1.135-1.05,2.1-1.05c0.768,0,1.4,0.3,1.9,0.9c0.533,0.634,0.801,1.434,0.801,2.4c0,1.1-0.301,1.967-0.9,2.6
			c-0.566,0.601-1.25,0.9-2.051,0.9c-0.932,0-1.615-0.384-2.049-1.15l-0.1,1h-1.4l0.049-9.45H78.55z M80.099,11.2
			c-0.332,0-0.633,0.117-0.9,0.35c-0.299,0.267-0.5,0.567-0.6,0.9l-0.049,0.4v1.05l0.049,0.4c0.234,0.733,0.734,1.1,1.5,1.1
			c0.5,0,0.885-0.183,1.15-0.55c0.334-0.367,0.5-0.883,0.5-1.55c0-0.6-0.15-1.083-0.449-1.45C81.033,11.417,80.632,11.2,80.099,11.2
			z M73.65,14.3v-0.85c-1.5-0.066-2.25,0.317-2.25,1.15c0,0.634,0.299,0.95,0.9,0.95c0.633,0,1.066-0.3,1.299-0.9L73.65,14.3z
			 M90.3,12.7h2.898c0-1.066-0.465-1.6-1.398-1.6C90.966,11.1,90.466,11.633,90.3,12.7z M91.9,9.95c0.967,0,1.699,0.35,2.199,1.05
			c0.4,0.566,0.6,1.267,0.6,2.1l-0.049,0.7H90.3c0.033,1.1,0.717,1.65,2.049,1.65c0.668,0,1.25-0.084,1.75-0.25l0.25,1.1
			c-0.6,0.267-1.35,0.4-2.25,0.4c-1.033,0-1.85-0.301-2.449-0.9c-0.6-0.566-0.9-1.35-0.9-2.35c0-0.933,0.268-1.733,0.801-2.4
			C90.15,10.316,90.933,9.95,91.9,9.95z M29.3,8.05c0.566,0.533,0.85,1.2,0.85,2v27.2c0,0.8-0.283,1.467-0.85,2
			c-0.566,0.566-1.233,0.85-2,0.85H15c-0.767,0-1.417-0.283-1.95-0.85c-0.566-0.533-0.851-1.2-0.851-2v-27.2
			c0-0.8,0.284-1.467,0.851-2C13.583,7.483,14.233,7.2,15,7.2h12.3C28.066,7.2,28.733,7.483,29.3,8.05z M19.75,10.75h2.8
			c0.267,0,0.399-0.117,0.399-0.35c0-0.2-0.133-0.3-0.399-0.3h-2.8c-0.233,0-0.351,0.1-0.351,0.3
			C19.399,10.633,19.517,10.75,19.75,10.75z M13.899,12.95v21.45h14.5V12.95H13.899z M38.149,16.6L41,7.65h2.1L46,16.6h-1.75
			l-0.801-2.55H40.6l-0.8,2.55H38.149z M49.75,15l1.5-4.85h1.649l-2.45,6.45h-1.6l-2.4-6.45h1.801L49.699,15H49.75z M47.149,20.55
			l5.7,17.4h-3l-1.65-5.15H42.55L41,37.95h-2.9l5.65-17.4H47.149z M42,8.95l-1.15,3.9h2.3L42,8.95z M45.399,22.85h-0.05l-2.3,7.851
			h4.7l-1.45-4.551C46.166,25.85,45.866,24.75,45.399,22.85z M21.149,38.6c0.4,0,0.767-0.149,1.101-0.45
			c0.267-0.267,0.399-0.6,0.399-1c0-0.433-0.133-0.783-0.399-1.05c-0.334-0.3-0.7-0.45-1.101-0.45c-0.399,0-0.75,0.15-1.05,0.45
			c-0.267,0.267-0.4,0.617-0.4,1.05c0,0.4,0.134,0.733,0.4,1C20.399,38.45,20.75,38.6,21.149,38.6z M89.05,23.3
			c-0.467,0.467-0.701,1-0.701,1.6c0,0.634,0.268,1.2,0.801,1.7c0.434,0.367,1.266,0.8,2.5,1.3c1.533,0.634,2.633,1.334,3.299,2.101
			C95.65,30.8,96,31.816,96,33.05c0,1.467-0.516,2.667-1.551,3.6c-1.166,1-2.732,1.5-4.699,1.5c-1.867,0-3.383-0.35-4.551-1.05
			l0.65-2.3c1.268,0.7,2.617,1.05,4.051,1.05c1.066,0,1.883-0.233,2.449-0.7c0.6-0.466,0.9-1.116,0.9-1.949
			c0-0.667-0.25-1.233-0.75-1.7c-0.533-0.5-1.334-0.967-2.4-1.4c-3.033-1.133-4.549-2.783-4.549-4.95c0-1.399,0.533-2.566,1.6-3.5
			c1.1-0.933,2.533-1.399,4.299-1.399c1.568,0,2.867,0.283,3.9,0.85l-0.699,2.3c-0.967-0.533-2.066-0.8-3.301-0.8
			C90.349,22.6,89.583,22.833,89.05,23.3z M80.25,31.5c0,2.133-0.584,3.816-1.75,5.05c-1.033,1.1-2.316,1.65-3.85,1.65
			c-1.633,0-2.834-0.584-3.6-1.75V43H68.3l-0.102-17.601h2.451l0.15,2h0.049c0.934-1.533,2.35-2.3,4.25-2.3
			c1.467,0,2.701,0.584,3.701,1.75C79.767,28.017,80.25,29.566,80.25,31.5z M76.599,28.6c-0.566-0.833-1.365-1.25-2.4-1.25
			c-0.699,0-1.332,0.233-1.898,0.7c-0.533,0.366-0.9,0.967-1.102,1.8L71.05,30.7v2.05c0,0.934,0.283,1.7,0.85,2.3
			c0.533,0.634,1.266,0.95,2.199,0.95c1.1,0,1.918-0.4,2.451-1.2c0.6-0.8,0.898-1.866,0.898-3.2
			C77.449,30.366,77.166,29.366,76.599,28.6z M66.5,31.5c0,2.066-0.584,3.75-1.75,5.05c-1.033,1.1-2.317,1.65-3.85,1.65
			c-1.666,0-2.866-0.584-3.6-1.75V43h-2.75l-0.101-17.601h2.45l0.101,2h0.05c0.967-1.533,2.383-2.3,4.25-2.3
			c1.467,0,2.7,0.584,3.7,1.75C66,28.05,66.5,29.6,66.5,31.5z M62.8,28.6c-0.566-0.833-1.384-1.25-2.45-1.25
			c-0.634,0-1.233,0.233-1.8,0.7c-0.566,0.434-0.934,1.033-1.101,1.8L57.3,30.7v2.05c0,0.934,0.283,1.7,0.85,2.3
			c0.5,0.634,1.217,0.95,2.15,0.95c1.1,0,1.934-0.4,2.5-1.2c0.534-0.8,0.799-1.866,0.799-3.2C63.599,30.333,63.333,29.333,62.8,28.6
			z M134.849,11.1c-0.832,0-1.332,0.534-1.5,1.6h2.801c0.033-0.4-0.033-0.75-0.201-1.05C135.716,11.283,135.349,11.1,134.849,11.1z
			 M137.099,11c0.434,0.6,0.65,1.3,0.65,2.1l-0.051,0.7h-4.35c0.033,1.1,0.684,1.65,1.951,1.65c0.732,0,1.332-0.084,1.799-0.25
			l0.25,1.1c-0.566,0.267-1.299,0.4-2.199,0.4c-1.033,0-1.85-0.301-2.451-0.9c-0.6-0.566-0.898-1.35-0.898-2.35
			c0-0.933,0.266-1.733,0.799-2.4c0.6-0.733,1.383-1.1,2.35-1.1C135.882,9.95,136.599,10.3,137.099,11z M101.15,13.35
			c0,0.633,0.15,1.167,0.449,1.6c0.301,0.4,0.701,0.6,1.201,0.6c0.434,0,0.816-0.2,1.148-0.6c0.268-0.4,0.4-0.933,0.4-1.6
			c0-0.566-0.115-1.05-0.35-1.45c-0.301-0.467-0.699-0.7-1.199-0.7c-0.533,0-0.967,0.217-1.301,0.65
			C101.267,12.25,101.15,12.75,101.15,13.35z M100.449,10.9c0.602-0.633,1.4-0.95,2.4-0.95c0.934,0,1.701,0.317,2.301,0.95
			s0.9,1.433,0.9,2.4c0,1.1-0.352,1.967-1.051,2.6c-0.633,0.567-1.4,0.851-2.301,0.851c-0.898,0-1.648-0.3-2.25-0.9
			C99.816,15.217,99.5,14.4,99.5,13.4C99.5,12.367,99.816,11.533,100.449,10.9z M109.05,10.15l0.049,0.95h0.051
			c0.4-0.767,1.1-1.15,2.1-1.15c0.633,0,1.166,0.2,1.6,0.6c0.467,0.5,0.701,1.233,0.701,2.2v3.85h-1.65v-3.7
			c0-1.067-0.416-1.6-1.25-1.6c-0.6,0-1.018,0.317-1.25,0.95l-0.1,0.55v3.8h-1.602l-0.049-6.45H109.05z M126.199,7.15V11h0.051
			c0.199-0.367,0.467-0.6,0.801-0.7c0.365-0.233,0.732-0.35,1.1-0.35c0.633,0,1.15,0.217,1.549,0.65
			c0.467,0.5,0.701,1.233,0.701,2.2v3.8h-1.65v-3.7c0-1.067-0.4-1.6-1.199-1.6c-0.668,0-1.102,0.3-1.301,0.9
			c-0.033,0.1-0.051,0.267-0.051,0.5v3.9h-1.6V7.15H126.199z M121.15,8.45v1.7h1.549v1.15h-1.549v2.9c0,0.767,0.283,1.15,0.85,1.15
			l0.6-0.05l0.051,1.25c-0.334,0.134-0.734,0.2-1.201,0.2c-0.633,0-1.1-0.2-1.398-0.601c-0.334-0.3-0.5-0.883-0.5-1.75v-3.1h-0.951
			v-1.15h0.951V8.9L121.15,8.45z M128.199,27.1c1.102-1.333,2.568-2,4.4-2c1.801,0,3.168,0.667,4.1,2
			c0.734,1.101,1.102,2.417,1.102,3.95c0,0.634-0.033,1.066-0.102,1.3h-8.35c0,1.167,0.385,2.101,1.15,2.8
			c0.699,0.601,1.617,0.9,2.75,0.9c1.334,0,2.467-0.2,3.4-0.6l0.449,1.899c-1.232,0.533-2.65,0.8-4.25,0.8
			c-1.9,0-3.416-0.566-4.549-1.699c-1.102-1.134-1.65-2.667-1.65-4.601C126.65,29.983,127.166,28.399,128.199,27.1z M130.15,28.2
			c-0.5,0.633-0.768,1.35-0.801,2.149h5.801c0-0.8-0.201-1.517-0.6-2.149c-0.467-0.767-1.201-1.15-2.201-1.15
			C131.449,27.05,130.716,27.434,130.15,28.2z M125.75,25.149v2.7l-0.85-0.1c-0.967,0-1.734,0.383-2.301,1.149
			c-0.434,0.634-0.65,1.45-0.65,2.45v6.601h-2.85l-0.049-12.551h2.398l0.15,2.4h0.051c0.299-0.833,0.766-1.483,1.4-1.95
			c0.633-0.5,1.299-0.75,2-0.75L125.75,25.149z M117.349,31.55c0,1.967-0.549,3.55-1.65,4.75c-1.133,1.267-2.648,1.9-4.549,1.9
			c-1.834,0-3.316-0.601-4.451-1.801c-1.066-1.199-1.6-2.75-1.6-4.649c0-1.934,0.566-3.517,1.701-4.75
			c1.066-1.267,2.582-1.9,4.549-1.9c1.867,0,3.334,0.617,4.4,1.851C116.816,28.116,117.349,29.649,117.349,31.55z M113.75,28.649
			c-0.566-0.966-1.4-1.449-2.5-1.449c-1.133,0-1.982,0.483-2.551,1.449c-0.5,0.834-0.75,1.834-0.75,3c0,1.167,0.25,2.167,0.75,3
			c0.568,0.967,1.4,1.45,2.5,1.45c1.135,0,1.967-0.5,2.5-1.5c0.535-0.899,0.801-1.899,0.801-3
			C114.5,30.467,114.25,29.483,113.75,28.649z M104.3,27.5h-3.102v6.05c0,1.533,0.551,2.3,1.65,2.3c0.6,0,1-0.033,1.201-0.1
			l0.1,2.149c-0.566,0.167-1.283,0.25-2.15,0.25c-1.1,0-1.967-0.316-2.6-0.949c-0.6-0.634-0.9-1.767-0.9-3.4v-6.3h-1.85v-2.101h1.85
			v-2.3l2.699-0.85v3.149h3.102V27.5z"/>
	</g>
</g>
</svg>
