<?xml version="1.0" encoding="utf-8"?>
<!-- Generator: Adobe Illustrator 16.0.3, SVG Export Plug-In . SVG Version: 6.00 Build 0)  -->
<!DOCTYPE svg PUBLIC "-//W3C//DTD SVG 1.1//EN" "http://www.w3.org/Graphics/SVG/1.1/DTD/svg11.dtd">
<svg version="1.1" id="Layer_1" xmlns="http://www.w3.org/2000/svg" xmlns:xlink="http://www.w3.org/1999/xlink" x="0px" y="0px"
	 width="76px" height="76px" viewBox="0 0 76 76" enable-background="new 0 0 76 76" xml:space="preserve">
<path fill="#FFFFFF" d="M2.101,76.003V12.356h9.36V6.74c0-2.067,1.677-3.744,3.743-3.744h7.486c2.067,0,3.744,1.677,3.744,3.744
	v5.614h26.208V6.74c0-2.067,1.675-3.744,3.742-3.744h7.486c2.067,0,3.744,1.677,3.744,3.744v5.614h9.361v63.645H2.101V76.003z
	 M7.715,70.385h63.642V27.331H7.715V70.385z M11.46,57.283h11.231v9.358H11.46V57.283z M26.435,57.283h11.231v9.358H26.435V57.283z
	 M41.411,57.283h11.232v9.358H41.411V57.283z M56.388,57.283h11.23v9.358h-11.23V57.283z M11.46,44.178h11.231v9.361H11.46V44.178z
	 M26.435,44.178h11.231v9.361H26.435V44.178z M41.411,44.178h11.232v9.361H41.411V44.178z M56.388,44.178h11.23v9.361h-11.23V44.178
	z M26.435,31.073h11.231v9.36H26.435V31.073z M41.411,31.073h11.232v9.36H41.411V31.073z M56.388,31.073h11.23v9.36h-11.23V31.073z
	 M59.195,6.74c-1.55,0-2.808,1.257-2.808,2.807v5.615c0,1.55,1.258,2.807,2.808,2.807h1.871c1.55,0,2.808-1.257,2.808-2.807V9.546
	c0-1.551-1.258-2.807-2.808-2.807H59.195z M18.011,6.74c-1.552,0-2.808,1.257-2.808,2.807v5.615c0,1.551,1.256,2.807,2.808,2.807
	h1.872c1.551,0,2.807-1.257,2.807-2.807V9.546c0-1.55-1.257-2.807-2.807-2.807H18.011z"/>
</svg>
