<?xml version="1.0" encoding="utf-8"?>
<!-- Generator: Adobe Illustrator 16.0.3, SVG Export Plug-In . SVG Version: 6.00 Build 0)  -->
<!DOCTYPE svg PUBLIC "-//W3C//DTD SVG 1.1//EN" "http://www.w3.org/Graphics/SVG/1.1/DTD/svg11.dtd">
<svg version="1.1" xmlns="http://www.w3.org/2000/svg" xmlns:xlink="http://www.w3.org/1999/xlink" x="0px" y="0px" width="40px"
	 height="40px" viewBox="0 0 40 40" enable-background="new 0 0 40 40" xml:space="preserve">
<g id="Layer_2" display="none">
	<rect x="0" display="inline" fill="#594A42" width="40" height="40"/>
</g>
<g id="Layer_3">
	<g>
		<path fill="#FFFFFF" d="M20,0C8.954,0,0,8.954,0,20s8.954,20,20,20s20-8.955,20-20S31.046,0,20,0z M28.318,15.734
			c0.008,0.185,0.012,0.37,0.012,0.556c0,5.671-4.316,12.21-12.211,12.21c-2.423,0-4.679-0.71-6.579-1.928
			c0.336,0.04,0.677,0.06,1.023,0.06c2.011,0,3.861-0.686,5.331-1.837c-1.878-0.035-3.463-1.275-4.009-2.98
			c0.262,0.05,0.531,0.077,0.808,0.077c0.391,0,0.771-0.053,1.13-0.15c-1.963-0.395-3.442-2.129-3.442-4.208
			c0-0.018,0-0.036,0-0.054c0.579,0.322,1.241,0.515,1.944,0.537c-1.152-0.77-1.909-2.083-1.909-3.572
			c0-0.787,0.211-1.524,0.581-2.158c2.117,2.597,5.279,4.305,8.846,4.484c-0.074-0.314-0.111-0.642-0.111-0.978
			c0-2.37,1.922-4.292,4.292-4.292c1.234,0,2.35,0.521,3.133,1.355c0.977-0.192,1.896-0.55,2.725-1.042
			c-0.32,1.002-1,1.843-1.887,2.375c0.869-0.104,1.695-0.334,2.465-0.676C29.883,14.374,29.156,15.129,28.318,15.734z"/>
	</g>
</g>
</svg>
