<?xml version="1.0" encoding="utf-8"?>
<!-- Generator: Adobe Illustrator 16.0.3, SVG Export Plug-In . SVG Version: 6.00 Build 0)  -->
<!DOCTYPE svg PUBLIC "-//W3C//DTD SVG 1.1//EN" "http://www.w3.org/Graphics/SVG/1.1/DTD/svg11.dtd">
<svg version="1.1" xmlns="http://www.w3.org/2000/svg" xmlns:xlink="http://www.w3.org/1999/xlink" x="0px" y="0px" width="40px"
	 height="40px" viewBox="0 0 40 40" enable-background="new 0 0 40 40" xml:space="preserve">
<g id="Layer_2" display="none">
	<rect x="0" display="inline" fill="#594A42" width="40" height="40"/>
</g>
<g id="Layer_3">
	<g>
		<path fill="#FFFFFF" d="M20,0C8.954,0,0,8.954,0,20s8.954,20,20,20s20-8.955,20-20S31.046,0,20,0z M25.172,12.856
			c-0.959,0-1.993,0-2.484,0c-0.49,0-0.987,0.509-0.987,0.888c0,0.377,0.075,2.783,0.075,2.783s2.931,0,3.329,0
			c-0.139,1.942-0.363,3.467-0.363,3.467L21.775,20v11h-4.632l-0.02-11.006L14.828,20v-3.474h2.315c0,0-0.02-2.711-0.02-3.266
			c0-0.554-0.113-4.261,4.671-4.261c0.643,0,2.097,0,3.377,0C25.172,10.609,25.172,12.352,25.172,12.856z"/>
	</g>
</g>
</svg>
