<?xml version="1.0" encoding="utf-8"?>
<!-- Generator: Adobe Illustrator 16.0.3, SVG Export Plug-In . SVG Version: 6.00 Build 0)  -->
<!DOCTYPE svg PUBLIC "-//W3C//DTD SVG 1.1//EN" "http://www.w3.org/Graphics/SVG/1.1/DTD/svg11.dtd">
<svg version="1.1" xmlns="http://www.w3.org/2000/svg" xmlns:xlink="http://www.w3.org/1999/xlink" x="0px" y="0px" width="40px"
	 height="40px" viewBox="0 0 40 40" enable-background="new 0 0 40 40" xml:space="preserve">
<g id="Layer_2" display="none">
	<rect x="0" display="inline" fill="#594A42" width="40" height="40"/>
</g>
<g id="Layer_3">
	<g>
		<path fill="#FFFFFF" d="M20,0C8.954,0,0,8.954,0,20s8.954,20,20,20s20-8.955,20-20S31.046,0,20,0z M20,30.5
			c-1.034,0-2.032-0.152-2.976-0.431c0.398-0.631,0.834-1.439,1.057-2.25c0.129-0.467,0.739-2.886,0.739-2.886
			c0.366,0.696,1.432,1.31,2.565,1.31c3.376,0,5.665-3.077,5.665-7.197c0-3.114-2.638-6.015-6.646-6.015
			c-4.989,0-7.505,3.577-7.505,6.559c0,1.806,0.684,3.413,2.15,4.012c0.24,0.098,0.456,0.002,0.526-0.263
			c0.048-0.185,0.164-0.65,0.214-0.844c0.07-0.263,0.043-0.355-0.151-0.585c-0.423-0.499-0.692-1.145-0.692-2.059
			c0-2.653,1.984-5.028,5.169-5.028c2.818,0,4.369,1.722,4.369,4.024c0,3.027-1.34,5.582-3.33,5.582
			c-1.098,0-1.919-0.908-1.656-2.021c0.314-1.331,0.927-2.767,0.927-3.727c0-0.859-0.462-1.576-1.417-1.576
			c-1.123,0-2.025,1.162-2.025,2.718c0,0.991,0.335,1.662,0.335,1.662s-1.149,4.869-1.351,5.722
			c-0.188,0.797-0.212,1.678-0.183,2.411C12.085,27.993,9.5,24.299,9.5,20c0-5.799,4.702-10.5,10.5-10.5
			c5.797,0,10.5,4.701,10.5,10.5C30.5,25.799,25.798,30.5,20,30.5z"/>
	</g>
</g>
</svg>
