<?xml version="1.0" encoding="utf-8"?>
<!-- Generator: Adobe Illustrator 16.2.0, SVG Export Plug-In . SVG Version: 6.00 Build 0)  -->
<!DOCTYPE svg PUBLIC "-//W3C//DTD SVG 1.1//EN" "http://www.w3.org/Graphics/SVG/1.1/DTD/svg11.dtd">
<svg version="1.1" id="Layer_1" xmlns="http://www.w3.org/2000/svg" xmlns:xlink="http://www.w3.org/1999/xlink" x="0px" y="0px"
	 width="40px" height="40px" viewBox="0 0 40 40" enable-background="new 0 0 40 40" xml:space="preserve">
<g transform="matrix( 1, 0, 0, 1, 0,0) ">
	<g>
		<g id="Layer0_40_FILL_1_">
			<path fill="#138F34" d="M40,20c0-0.993-0.066-1.96-0.199-2.899c-0.566-4.301-2.449-8.051-5.65-11.25
				c-1.652-1.653-3.452-2.953-5.399-3.9c-1.117-0.549-2.284-0.982-3.5-1.3C23.591,0.217,21.841,0,20,0
				c-1.833,0-3.583,0.217-5.25,0.65C12.705,1.186,10.788,2.053,9,3.25c-0.461,0.312-0.911,0.645-1.35,1
				c-0.619,0.491-1.22,1.024-1.8,1.601c-0.328,0.327-0.645,0.66-0.95,1c-2.625,2.974-4.191,6.39-4.7,10.25
				C0.066,18.04,0,19.007,0,20c0,5.533,1.95,10.232,5.851,14.102C9.783,38.033,14.5,40,20,40c5.533,0,10.25-1.967,14.15-5.898
				C38.051,30.232,40,25.533,40,20z"/>
		</g>
	</g>
</g>
<g>
	<g transform="matrix( 1, 0, 0, 1, -308.65,-277.85) ">
		<g>
			<path fill="#FFFFFF" stroke="#15833D" stroke-width="0.25" stroke-miterlimit="10" d="M320.087,294.043
				c-0.125,0.114-0.239,0.233-0.341,0.358c-2.465,2.453-3.696,5.423-3.696,8.914h7.563c0-1.392,0.49-2.59,1.471-3.593
				c0.114-0.103,0.233-0.205,0.359-0.308L320.087,294.043z"/>
		</g>
		<path fill="#15833D" d="M331.857,299.414c0.125,0.104,0.238,0.205,0.342,0.309c0.992,1.003,1.49,2.201,1.49,3.593h7.561
			c0-3.489-1.227-6.461-3.678-8.914c-0.113-0.125-0.234-0.244-0.359-0.358L331.857,299.414z"/>
		<path fill="#FFFFFF" d="M325.443,299.414c0.159-0.147,0.319-0.272,0.479-0.377c0.798-0.523,1.705-0.787,2.72-0.787v-7.545
			c-3.33,0-6.182,1.112-8.555,3.337L325.443,299.414z"/>
		<path fill="#FFFFFF" stroke="#15833D" stroke-width="0.1" stroke-miterlimit="10" d="M329.171,290.724
			c-0.16-0.011-0.335-0.018-0.529-0.018v7.545c0.194,0,0.37,0.012,0.529,0.034c1.014,0.092,1.91,0.467,2.686,1.129l5.355-5.372
			c-0.08-0.08-0.16-0.147-0.24-0.206C334.759,291.854,332.16,290.816,329.171,290.724z"/>
		<g>
			
				<path id="Layer0_0_MEMBER_0_1_STROKES" fill="none" stroke="#FFFFFF" stroke-width="2" stroke-linecap="round" stroke-linejoin="round" d="
				M328.642,289.595v1.111c0.194,0,0.37,0.007,0.529,0.018c2.987,0.092,5.588,1.13,7.801,3.113c0.08,0.059,0.16,0.126,0.24,0.206
				l0.821-0.855 M328.642,298.251c-1.015,0-1.922,0.263-2.72,0.787c-0.16,0.104-0.32,0.229-0.479,0.377
				c-0.126,0.104-0.245,0.205-0.359,0.309c-0.98,1.003-1.471,2.201-1.471,3.593h-7.563c0-3.489,1.231-6.461,3.696-8.914
				c0.102-0.125,0.216-0.244,0.341-0.358l-0.854-0.855 M331.857,299.414c0.125,0.104,0.238,0.205,0.342,0.309
				c0.992,1.003,1.49,2.201,1.49,3.593h7.561c0-3.489-1.227-6.461-3.678-8.914c-0.113-0.125-0.234-0.244-0.359-0.358
				L331.857,299.414c-0.775-0.662-1.672-1.037-2.686-1.129c-0.16-0.022-0.335-0.034-0.529-0.034v-7.545
				c-3.33,0-6.182,1.112-8.555,3.337l5.355,5.372"/>
		</g>
	</g>
	<path fill="#FFFFFF" stroke="#18833D" stroke-width="0.25" stroke-miterlimit="10" d="M11.108,17.437
		c-0.091,0.084-0.173,0.172-0.247,0.264c-1.797,1.807-2.685,3.988-2.67,6.543l5.54-0.031c-0.007-1.018,0.348-1.9,1.062-2.637
		c0.082-0.077,0.17-0.153,0.262-0.229L11.108,17.437z"/>
	<g>
		<path fill="#18833D" stroke="#FFFFFF" stroke-width="0.25" stroke-miterlimit="10" d="M31.475,24.456
			c0.004-0.125-0.002-0.247-0.014-0.365c-0.027-2.582-0.969-4.771-2.822-6.576l-3.916,4.019c0.74,0.719,1.125,1.603,1.148,2.64
			c-0.004,0.114-0.01,0.23-0.021,0.352L31.475,24.456z"/>
	</g>
</g>
<path fill="#FFFFFF" stroke="#18833D" stroke-width="0.2" stroke-miterlimit="10" d="M21.236,14.029
	c-0.117-0.008-0.248-0.013-0.391-0.013v5.566c0.143,0,0.272,0.008,0.391,0.025c0.748,0.068,1.408,0.345,1.979,0.833l3.951-3.963
	c-0.06-0.059-0.118-0.109-0.177-0.152C25.357,14.862,23.439,14.097,21.236,14.029z"/>
<path fill="#FFFFFF" stroke="#18833D" stroke-width="0.2" stroke-miterlimit="10" d="M13.23,16.223
	c-0.089,0.074-0.185,0.157-0.288,0.256l3.788,3.971c0.103-0.097,0.2-0.18,0.295-0.248c0.581-0.461,1.24-0.713,1.98-0.753
	l0.122-5.516c-0.083-0.002-0.157,0.003-0.229,0.011C16.737,14.012,14.849,14.771,13.23,16.223z"/>
<g transform="matrix( 1, 0, 0, 1, -308.65,-277.85) ">
	<g>
		<g id="Layer0_0_MEMBER_1_FILL_1_">
			<path fill="#FFFFFF" d="M334.142,289.595l3.823-2.859l-4.296-1.849L334.142,289.595z"/>
		</g>
	</g>
</g>
</svg>
